<svg width="24" height="24" viewBox="0 0 24 24" fill="none" xmlns="http://www.w3.org/2000/svg">
  <path d="M16.474 5.408L18.592 7.526M17.836 3.672L12.109 9.399C11.779 9.729 11.539 10.138 11.412 10.587L10.5 14L13.913 13.088C14.362 12.961 14.771 12.721 15.101 12.391L20.828 6.664C21.391 6.101 21.391 5.193 20.828 4.63L19.87 3.672C19.307 3.109 18.399 3.109 17.836 3.672Z" stroke="currentColor" stroke-width="1.5" stroke-linecap="round" stroke-linejoin="round"/>
  <path d="M19 15V18C19 19.1046 18.1046 20 17 20H6C4.89543 20 4 19.1046 4 18V7C4 5.89543 4.89543 5 6 5H9" stroke="currentColor" stroke-width="1.5" stroke-linecap="round" stroke-linejoin="round"/>
</svg>
